# xmcd CD database file
#
# Track frame offsets:
#	150
#	37801
#	74017
#	93868
#	132772
#	164131
#
# Disc length: 2821 seconds
#
# Revision: 0
# Processed by: cddbd v1.5.2PL0 Copyright (c) Steve Scherf et al.
# Submitted via: CDex 1.51
#
DISCID=4d0b0306
DTITLE=François Corneloup - ULM
DYEAR=2007
DGENRE=Jazz
TTITLE0=Jardin de Pierres
TTITLE1=Lagune
TTITLE2=L'Ombre d'Un Chant
TTITLE3=ULM
TTITLE4=Liquides Précieux
TTITLE5=Nocturne
EXTD=YEAR: 2007
EXTT0=
EXTT1=
EXTT2=
EXTT3=
EXTT4=
EXTT5=
PLAYORDER=
